<svg xmlns="http://www.w3.org/2000/svg" viewBox="0 0 24 24" fill="#E4405F">
  <path d="M12 2.163c3.204 0 3.584.012 4.85.07 1.17.054 1.97.24 2.43.403a4.088 4.088 0 011.523.99 4.088 4.088 0 01.99 1.524c.163.46.349 1.26.403 2.43.058 1.265.07 1.645.07 4.849s-.012 3.584-.07 4.85c-.054 1.17-.24 1.97-.403 2.43a4.088 4.088 0 01-.99 1.523 4.088 4.088 0 01-1.524.99c-.46.163-1.26.349-2.43.403-1.265.058-1.645.07-4.849.07s-3.584-.012-4.85-.07c-1.17-.054-1.97-.24-2.43-.403a4.088 4.088 0 01-1.523-.99 4.088 4.088 0 01-.99-1.524c-.163-.46-.349-1.26-.403-2.43C2.175 15.584 2.163 15.204 2.163 12s.012-3.584.07-4.85c.054-1.17.24-1.97.403-2.43a4.088 4.088 0 01.99-1.523A4.088 4.088 0 015.15 2.207c.46-.163 1.26-.349 2.43-.403C8.845 1.746 9.225 1.734 12 1.734V2.163zM12 0C8.741 0 8.333.014 7.053.072 5.775.131 4.902.333 4.14.63a5.882 5.882 0 00-2.126 1.384A5.882 5.882 0 00.63 4.14C.333 4.902.131 5.775.072 7.053.014 8.333 0 8.741 0 12s.014 3.668.072 4.948c.059 1.277.261 2.15.558 2.913a5.882 5.882 0 001.384 2.126 5.882 5.882 0 002.126 1.384c.763.297 1.636.499 2.913.558C8.333 23.986 8.741 24 12 24s3.668-.014 4.948-.072c1.277-.059 2.15-.261 2.913-.558a5.882 5.882 0 002.126-1.384 5.882 5.882 0 001.384-2.126c.297-.763.499-1.636.558-2.913.058-1.28.072-1.688.072-4.948s-.014-3.668-.072-4.948c-.059-1.277-.261-2.15-.558-2.913a5.882 5.882 0 00-1.384-2.126A5.882 5.882 0 0019.86.63C19.098.333 18.225.131 16.948.072 15.668.014 15.259 0 12 0zm0 5.838a6.162 6.162 0 100 12.324 6.162 6.162 0 000-12.324zM12 16a4 4 0 110-8 4 4 0 010 8zm6.406-11.845a1.44 1.44 0 100 2.881 1.44 1.44 0 000-2.881z"/>
</svg>
